<?xml version="1.0" encoding="UTF-8"?>
<svg xmlns="http://www.w3.org/2000/svg" xmlns:xlink="http://www.w3.org/1999/xlink" width="2836" height="2835" viewBox="0 0 2836 2835">
<defs>
<clipPath id="clip-0">

</clipPath>
<radialGradient id="radial-pattern-0" gradientUnits="userSpaceOnUse" cx="1417.32" cy="1417.32" fx="1417.32" fy="1417.32" r="2004.4" gradientTransform="matrix(1, 0, 0, -1, 1, 2835)">
<stop offset="0" stop-color="rgb(0%, 0%, 0%)" stop-opacity="0"/>
<stop offset="0" stop-color="rgb(100%, 100%, 100%)" stop-opacity="1"/>
<stop offset="0.0234375" stop-color="rgb(99.809265%, 99.809265%, 99.809265%)" stop-opacity="1"/>
<stop offset="0.046875" stop-color="rgb(99.429321%, 99.429321%, 99.429321%)" stop-opacity="1"/>
<stop offset="0.0585938" stop-color="rgb(99.143982%, 99.143982%, 99.143982%)" stop-opacity="1"/>
<stop offset="0.078125" stop-color="rgb(98.890686%, 98.890686%, 98.890686%)" stop-opacity="1"/>
<stop offset="0.101562" stop-color="rgb(98.542786%, 98.542786%, 98.542786%)" stop-opacity="1"/>
<stop offset="0.113281" stop-color="rgb(98.258972%, 98.258972%, 98.258972%)" stop-opacity="1"/>
<stop offset="0.128906" stop-color="rgb(98.03772%, 98.03772%, 98.03772%)" stop-opacity="1"/>
<stop offset="0.144531" stop-color="rgb(97.784424%, 97.784424%, 97.784424%)" stop-opacity="1"/>
<stop offset="0.164062" stop-color="rgb(97.499084%, 97.499084%, 97.499084%)" stop-opacity="1"/>
<stop offset="0.1875" stop-color="rgb(97.151184%, 97.151184%, 97.151184%)" stop-opacity="1"/>
<stop offset="0.210938" stop-color="rgb(96.77124%, 96.77124%, 96.77124%)" stop-opacity="1"/>
<stop offset="0.222656" stop-color="rgb(96.485901%, 96.485901%, 96.485901%)" stop-opacity="1"/>
<stop offset="0.234375" stop-color="rgb(96.296692%, 96.296692%, 96.296692%)" stop-opacity="1"/>
<stop offset="0.25" stop-color="rgb(96.075439%, 96.075439%, 96.075439%)" stop-opacity="1"/>
<stop offset="0.265625" stop-color="rgb(95.822144%, 95.822144%, 95.822144%)" stop-opacity="1"/>
<stop offset="0.28125" stop-color="rgb(95.568848%, 95.568848%, 95.568848%)" stop-opacity="1"/>
<stop offset="0.296875" stop-color="rgb(95.315552%, 95.315552%, 95.315552%)" stop-opacity="1"/>
<stop offset="0.316406" stop-color="rgb(95.030212%, 95.030212%, 95.030212%)" stop-opacity="1"/>
<stop offset="0.335938" stop-color="rgb(94.714355%, 94.714355%, 94.714355%)" stop-opacity="1"/>
<stop offset="0.355469" stop-color="rgb(94.396973%, 94.396973%, 94.396973%)" stop-opacity="1"/>
<stop offset="0.378906" stop-color="rgb(94.049072%, 94.049072%, 94.049072%)" stop-opacity="1"/>
<stop offset="0.402344" stop-color="rgb(93.669128%, 93.669128%, 93.669128%)" stop-opacity="1"/>
<stop offset="0.425781" stop-color="rgb(93.289185%, 93.289185%, 93.289185%)" stop-opacity="1"/>
<stop offset="0.4375" stop-color="rgb(93.005371%, 93.005371%, 93.005371%)" stop-opacity="1"/>
<stop offset="0.449219" stop-color="rgb(92.814636%, 92.814636%, 92.814636%)" stop-opacity="1"/>
<stop offset="0.460938" stop-color="rgb(92.625427%, 92.625427%, 92.625427%)" stop-opacity="1"/>
<stop offset="0.472656" stop-color="rgb(92.436218%, 92.436218%, 92.436218%)" stop-opacity="1"/>
<stop offset="0.484375" stop-color="rgb(92.245483%, 92.245483%, 92.245483%)" stop-opacity="1"/>
<stop offset="0.496094" stop-color="rgb(92.056274%, 92.056274%, 92.056274%)" stop-opacity="1"/>
<stop offset="0.511719" stop-color="rgb(91.835022%, 91.835022%, 91.835022%)" stop-opacity="1"/>
<stop offset="0.527344" stop-color="rgb(91.581726%, 91.581726%, 91.581726%)" stop-opacity="1"/>
<stop offset="0.542969" stop-color="rgb(91.32843%, 91.32843%, 91.32843%)" stop-opacity="1"/>
<stop offset="0.558594" stop-color="rgb(91.075134%, 91.075134%, 91.075134%)" stop-opacity="1"/>
<stop offset="0.574219" stop-color="rgb(90.821838%, 90.821838%, 90.821838%)" stop-opacity="1"/>
<stop offset="0.589844" stop-color="rgb(90.568542%, 90.568542%, 90.568542%)" stop-opacity="1"/>
<stop offset="0.605469" stop-color="rgb(90.315247%, 90.315247%, 90.315247%)" stop-opacity="1"/>
<stop offset="0.621094" stop-color="rgb(90.042114%, 90.042114%, 90.042114%)" stop-opacity="1"/>
<stop offset="0.628906" stop-color="rgb(89.794922%, 89.794922%, 89.794922%)" stop-opacity="1"/>
<stop offset="0.636719" stop-color="rgb(89.590454%, 89.590454%, 89.590454%)" stop-opacity="1"/>
<stop offset="0.644531" stop-color="rgb(89.387512%, 89.387512%, 89.387512%)" stop-opacity="1"/>
<stop offset="0.652344" stop-color="rgb(89.183044%, 89.183044%, 89.183044%)" stop-opacity="1"/>
<stop offset="0.660156" stop-color="rgb(88.978577%, 88.978577%, 88.978577%)" stop-opacity="1"/>
<stop offset="0.667969" stop-color="rgb(88.774109%, 88.774109%, 88.774109%)" stop-opacity="1"/>
<stop offset="0.675781" stop-color="rgb(88.571167%, 88.571167%, 88.571167%)" stop-opacity="1"/>
<stop offset="0.683594" stop-color="rgb(88.366699%, 88.366699%, 88.366699%)" stop-opacity="1"/>
<stop offset="0.691406" stop-color="rgb(88.162231%, 88.162231%, 88.162231%)" stop-opacity="1"/>
<stop offset="0.699219" stop-color="rgb(87.957764%, 87.957764%, 87.957764%)" stop-opacity="1"/>
<stop offset="0.707031" stop-color="rgb(87.754822%, 87.754822%, 87.754822%)" stop-opacity="1"/>
<stop offset="0.714844" stop-color="rgb(87.550354%, 87.550354%, 87.550354%)" stop-opacity="1"/>
<stop offset="0.722656" stop-color="rgb(87.345886%, 87.345886%, 87.345886%)" stop-opacity="1"/>
<stop offset="0.730469" stop-color="rgb(87.141418%, 87.141418%, 87.141418%)" stop-opacity="1"/>
<stop offset="0.738281" stop-color="rgb(86.938477%, 86.938477%, 86.938477%)" stop-opacity="1"/>
<stop offset="0.746094" stop-color="rgb(86.734009%, 86.734009%, 86.734009%)" stop-opacity="1"/>
<stop offset="0.757812" stop-color="rgb(86.477661%, 86.477661%, 86.477661%)" stop-opacity="1"/>
<stop offset="0.769531" stop-color="rgb(86.172485%, 86.172485%, 86.172485%)" stop-opacity="1"/>
<stop offset="0.78125" stop-color="rgb(85.865784%, 85.865784%, 85.865784%)" stop-opacity="1"/>
<stop offset="0.792969" stop-color="rgb(85.560608%, 85.560608%, 85.560608%)" stop-opacity="1"/>
<stop offset="0.804688" stop-color="rgb(85.253906%, 85.253906%, 85.253906%)" stop-opacity="1"/>
<stop offset="0.816406" stop-color="rgb(84.947205%, 84.947205%, 84.947205%)" stop-opacity="1"/>
<stop offset="0.828125" stop-color="rgb(84.642029%, 84.642029%, 84.642029%)" stop-opacity="1"/>
<stop offset="0.839844" stop-color="rgb(84.335327%, 84.335327%, 84.335327%)" stop-opacity="1"/>
<stop offset="0.851562" stop-color="rgb(84.028625%, 84.028625%, 84.028625%)" stop-opacity="1"/>
<stop offset="0.863281" stop-color="rgb(83.72345%, 83.72345%, 83.72345%)" stop-opacity="1"/>
<stop offset="0.875" stop-color="rgb(83.416748%, 83.416748%, 83.416748%)" stop-opacity="1"/>
<stop offset="0.886719" stop-color="rgb(83.111572%, 83.111572%, 83.111572%)" stop-opacity="1"/>
<stop offset="0.898438" stop-color="rgb(82.804871%, 82.804871%, 82.804871%)" stop-opacity="1"/>
<stop offset="0.910156" stop-color="rgb(82.498169%, 82.498169%, 82.498169%)" stop-opacity="1"/>
<stop offset="0.921875" stop-color="rgb(82.192993%, 82.192993%, 82.192993%)" stop-opacity="1"/>
<stop offset="0.933594" stop-color="rgb(81.886292%, 81.886292%, 81.886292%)" stop-opacity="1"/>
<stop offset="0.945312" stop-color="rgb(81.581116%, 81.581116%, 81.581116%)" stop-opacity="1"/>
<stop offset="0.957031" stop-color="rgb(81.274414%, 81.274414%, 81.274414%)" stop-opacity="1"/>
<stop offset="0.96875" stop-color="rgb(80.967712%, 80.967712%, 80.967712%)" stop-opacity="1"/>
<stop offset="0.980469" stop-color="rgb(80.662537%, 80.662537%, 80.662537%)" stop-opacity="1"/>
<stop offset="0.992188" stop-color="rgb(80.355835%, 80.355835%, 80.355835%)" stop-opacity="1"/>
<stop offset="1" stop-color="rgb(80.101013%, 80.101013%, 80.101013%)" stop-opacity="1"/>
<stop offset="1" stop-color="rgb(0%, 0%, 0%)" stop-opacity="0"/>
</radialGradient>
</defs>
<g clip-path="url(#clip-0)">
<path fill-rule="nonzero" fill="url(#radial-pattern-0)" d="M 1 2835 L 1 0.351562 L 2835.640625 0.351562 L 2835.640625 2835 Z M 1 2835 "/>
</g>
<path fill-rule="nonzero" fill="rgb(30.332947%, 62.969971%, 86.92627%)" fill-opacity="1" d="M 768.253906 938.378906 C 768.253906 938.378906 750.804688 673.921875 972.632812 512.449219 C 1194.460938 350.96875 1633.761719 338.929688 1850.328125 604.808594 C 2066.898438 870.699219 1910.371094 1164.859375 1807.441406 1279.371094 C 1807.441406 1279.371094 1366.429688 1183.480469 1133.429688 1423.769531 L 768.253906 938.378906 "/>
<path fill="none" stroke-width="95.938" stroke-linecap="round" stroke-linejoin="round" stroke="rgb(6.32782%, 5.79834%, 5.117798%)" stroke-opacity="1" stroke-miterlimit="10" d="M 7682.539062 18966.210938 C 7682.539062 18966.210938 7508.046875 21610.78125 9726.328125 23225.507812 C 11944.609375 24840.3125 16337.617188 24960.703125 18503.28125 22301.914062 C 20668.984375 19643.007812 19103.710938 16701.40625 18074.414062 15556.289062 C 18074.414062 15556.289062 13664.296875 16515.195312 11334.296875 14112.304688 Z M 7682.539062 18966.210938 " transform="matrix(0.1, 0, 0, -0.1, 0, 2835)"/>
<path fill-rule="nonzero" fill="rgb(100%, 100%, 100%)" fill-opacity="1" d="M 991.730469 613.679688 L 1457.738281 633 C 1457.738281 633 1788.78125 679.660156 1788.839844 985.671875 C 1788.890625 1285.019531 1568.050781 1256.871094 1568.050781 1256.871094 C 1538.5 1258.609375 1251.648438 1276 1133.429688 1423.769531 C 1133.429688 1423.769531 969.015625 1345.03125 873.746094 1224.839844 C 747.46875 1065.539062 680.480469 738.941406 991.730469 613.679688 "/>
<path fill="none" stroke-width="95.938" stroke-linecap="round" stroke-linejoin="round" stroke="rgb(6.32782%, 5.79834%, 5.117798%)" stroke-opacity="1" stroke-miterlimit="10" d="M 9917.304688 22213.203125 L 14577.382812 22020 C 14577.382812 22020 17887.8125 21553.398438 17888.398438 18493.28125 C 17888.90625 15499.804688 15680.507812 15781.289062 15680.507812 15781.289062 C 15385 15763.90625 12516.484375 15590 11334.296875 14112.304688 C 11334.296875 14112.304688 9690.15625 14899.6875 8737.460938 16101.601562 C 7474.6875 17694.609375 6804.804688 20960.585938 9917.304688 22213.203125 Z M 9917.304688 22213.203125 " transform="matrix(0.1, 0, 0, -0.1, 0, 2835)"/>
<path fill-rule="nonzero" fill="rgb(100%, 100%, 100%)" fill-opacity="1" d="M 1130.941406 719.390625 C 1130.941406 719.390625 1212.621094 672.710938 1205.949219 547.691406 C 1199.28125 422.660156 1104.921875 387.300781 1024.25 504.351562 C 939.230469 627.699219 1035.921875 776.070312 1130.941406 719.390625 "/>
<path fill-rule="nonzero" fill="rgb(100%, 100%, 100%)" fill-opacity="1" d="M 1206.609375 583.671875 C 1206.609375 583.671875 1208.21875 451.421875 1318.238281 432.871094 C 1428.261719 414.328125 1466.601562 523.660156 1464.941406 582.351562 C 1463.269531 641.039062 1434.328125 761.871094 1298.238281 731.828125 C 1196.550781 709.390625 1206.609375 583.671875 1206.609375 583.671875 "/>
<path fill="none" stroke-width="95.938" stroke-linecap="round" stroke-linejoin="round" stroke="rgb(6.32782%, 5.79834%, 5.117798%)" stroke-opacity="1" stroke-miterlimit="10" d="M 11309.414062 21156.09375 C 11309.414062 21156.09375 12126.210938 21622.890625 12059.492188 22873.085938 C 11992.8125 24123.398438 11049.21875 24476.992188 10242.5 23306.484375 C 9392.304688 22073.007812 10359.21875 20589.296875 11309.414062 21156.09375 Z M 11309.414062 21156.09375 " transform="matrix(0.1, 0, 0, -0.1, 0, 2835)"/>
<path fill="none" stroke-width="95.938" stroke-linecap="round" stroke-linejoin="round" stroke="rgb(6.32782%, 5.79834%, 5.117798%)" stroke-opacity="1" stroke-miterlimit="10" d="M 12066.09375 22513.28125 C 12066.09375 22513.28125 12082.1875 23835.78125 13182.382812 24021.289062 C 14282.617188 24206.71875 14666.015625 23113.398438 14649.414062 22526.484375 C 14632.695312 21939.609375 14343.28125 20731.289062 12982.382812 21031.71875 C 11965.507812 21256.09375 12066.09375 22513.28125 12066.09375 22513.28125 Z M 12066.09375 22513.28125 " transform="matrix(0.1, 0, 0, -0.1, 0, 2835)"/>
<path fill-rule="nonzero" fill="rgb(6.32782%, 5.79834%, 5.117798%)" fill-opacity="1" d="M 1186.410156 592.121094 C 1185.089844 616.761719 1169.808594 635.980469 1152.28125 635.039062 C 1134.75 634.101562 1121.621094 613.359375 1122.941406 588.710938 C 1124.261719 564.058594 1139.539062 544.851562 1157.070312 545.789062 C 1174.601562 546.730469 1187.730469 567.46875 1186.410156 592.121094 "/>
<path fill-rule="nonzero" fill="rgb(100%, 100%, 100%)" fill-opacity="1" d="M 1172.851562 591.21875 C 1172.230469 602.851562 1165.011719 611.910156 1156.75 611.46875 C 1148.480469 611.03125 1142.28125 601.238281 1142.898438 589.609375 C 1143.53125 577.980469 1150.730469 568.910156 1159 569.359375 C 1167.28125 569.800781 1173.46875 579.589844 1172.851562 591.21875 "/>
<path fill-rule="nonzero" fill="rgb(6.32782%, 5.79834%, 5.117798%)" fill-opacity="1" d="M 1365.429688 596.648438 C 1364.109375 621.289062 1348.820312 640.511719 1331.300781 639.570312 C 1313.769531 638.628906 1300.628906 617.890625 1301.949219 593.238281 C 1303.28125 568.601562 1318.558594 549.378906 1336.089844 550.320312 C 1353.609375 551.261719 1366.75 572 1365.429688 596.648438 "/>
<path fill-rule="nonzero" fill="rgb(100%, 100%, 100%)" fill-opacity="1" d="M 1351.859375 595.75 C 1351.238281 607.378906 1344.03125 616.441406 1335.761719 616 C 1327.488281 615.558594 1321.289062 605.769531 1321.921875 594.140625 C 1322.539062 582.511719 1329.75 573.449219 1338.019531 573.890625 C 1346.289062 574.328125 1352.488281 584.121094 1351.859375 595.75 "/>
<path fill-rule="nonzero" fill="rgb(90.06958%, 11.387634%, 14.448547%)" fill-opacity="1" d="M 1232.421875 769.96875 C 1232.421875 811.140625 1199.050781 844.519531 1157.878906 844.519531 C 1116.699219 844.519531 1083.328125 811.140625 1083.328125 769.96875 C 1083.328125 728.800781 1116.699219 695.421875 1157.878906 695.421875 C 1199.050781 695.421875 1232.421875 728.800781 1232.421875 769.96875 "/>
<path fill="none" stroke-width="95.938" stroke-linecap="round" stroke-linejoin="round" stroke="rgb(6.32782%, 5.79834%, 5.117798%)" stroke-opacity="1" stroke-miterlimit="10" d="M 12324.21875 20650.3125 C 12324.21875 20238.59375 11990.507812 19904.804688 11578.789062 19904.804688 C 11166.992188 19904.804688 10833.28125 20238.59375 10833.28125 20650.3125 C 10833.28125 21061.992188 11166.992188 21395.78125 11578.789062 21395.78125 C 11990.507812 21395.78125 12324.21875 21061.992188 12324.21875 20650.3125 Z M 12324.21875 20650.3125 " transform="matrix(0.1, 0, 0, -0.1, 0, 2835)"/>
<path fill-rule="nonzero" fill="rgb(30.332947%, 62.969971%, 86.92627%)" fill-opacity="1" d="M 1108.421875 1560.480469 L 1053.21875 1650.441406 L 1149.578125 1746.800781 C 1149.578125 1746.800781 1210.710938 1720.621094 1234.960938 1684.320312 C 1259.21875 1648.011719 1199.109375 1517.25 1108.421875 1560.480469 "/>
<path fill="none" stroke-width="95.938" stroke-linecap="round" stroke-linejoin="round" stroke="rgb(6.32782%, 5.79834%, 5.117798%)" stroke-opacity="1" stroke-miterlimit="10" d="M 11084.21875 12745.195312 L 10532.1875 11845.585938 L 11495.78125 10881.992188 C 11495.78125 10881.992188 12107.109375 11143.789062 12349.609375 11506.796875 C 12592.1875 11869.882812 11991.09375 13177.5 11084.21875 12745.195312 Z M 11084.21875 12745.195312 " transform="matrix(0.1, 0, 0, -0.1, 0, 2835)"/>
<path fill-rule="nonzero" fill="rgb(94.943237%, 92.929077%, 8.555603%)" fill-opacity="1" d="M 1191.851562 1518.328125 C 1191.851562 1567.050781 1152.351562 1606.539062 1103.640625 1606.539062 C 1054.921875 1606.539062 1015.429688 1567.050781 1015.429688 1518.328125 C 1015.429688 1469.621094 1054.921875 1430.121094 1103.640625 1430.121094 C 1152.351562 1430.121094 1191.851562 1469.621094 1191.851562 1518.328125 "/>
<path fill="none" stroke-width="95.938" stroke-linecap="round" stroke-linejoin="round" stroke="rgb(6.32782%, 5.79834%, 5.117798%)" stroke-opacity="1" stroke-miterlimit="10" d="M 11918.515625 13166.71875 C 11918.515625 12679.492188 11523.515625 12284.609375 11036.40625 12284.609375 C 10549.21875 12284.609375 10154.296875 12679.492188 10154.296875 13166.71875 C 10154.296875 13653.789062 10549.21875 14048.789062 11036.40625 14048.789062 C 11523.515625 14048.789062 11918.515625 13653.789062 11918.515625 13166.71875 Z M 11918.515625 13166.71875 " transform="matrix(0.1, 0, 0, -0.1, 0, 2835)"/>
<path fill-rule="nonzero" fill="rgb(94.943237%, 92.929077%, 8.555603%)" fill-opacity="1" d="M 1009.460938 1534.429688 C 1005.570312 1534.429688 1001.660156 1533.011719 998.5625 1530.148438 C 992.082031 1524.148438 991.75 1513.960938 997.746094 1507.480469 C 999.996094 1505.050781 1054.378906 1448.339844 1198.480469 1472.519531 C 1207.191406 1473.980469 1213.070312 1482.21875 1211.609375 1490.929688 C 1210.148438 1499.640625 1201.929688 1505.519531 1193.191406 1504.058594 C 1127.308594 1493 1083.878906 1500.578125 1059.039062 1508.878906 C 1032.589844 1517.730469 1021.199219 1529.21875 1021.089844 1529.339844 C 1017.960938 1532.71875 1013.710938 1534.429688 1009.460938 1534.429688 "/>
<path fill="none" stroke-width="95.938" stroke-linecap="round" stroke-linejoin="round" stroke="rgb(6.32782%, 5.79834%, 5.117798%)" stroke-opacity="1" stroke-miterlimit="10" d="M 10094.609375 13005.703125 C 10055.703125 13005.703125 10016.601562 13019.882812 9985.625 13048.515625 C 9920.820312 13108.515625 9917.5 13210.390625 9977.460938 13275.195312 C 9999.960938 13299.492188 10543.789062 13866.601562 11984.804688 13624.804688 C 12071.914062 13610.195312 12130.703125 13527.8125 12116.09375 13440.703125 C 12101.484375 13353.59375 12019.296875 13294.804688 11931.914062 13309.414062 C 11273.085938 13420 10838.789062 13344.21875 10590.390625 13261.210938 C 10325.898438 13172.695312 10211.992188 13057.8125 10210.898438 13056.601562 C 10179.609375 13022.8125 10137.109375 13005.703125 10094.609375 13005.703125 Z M 10094.609375 13005.703125 " transform="matrix(0.1, 0, 0, -0.1, 0, 2835)"/>
<path fill-rule="nonzero" fill="rgb(100%, 100%, 100%)" fill-opacity="1" d="M 1172.238281 1395.050781 C 1172.238281 1395.050781 1124.691406 1414.648438 1122.96875 1433.558594 C 1121.238281 1452.460938 1137.578125 1698.660156 1264.328125 1815.429688 C 1391.078125 1932.207031 1444.78125 1687.449219 1363.519531 1503.128906 C 1282.25 1318.808594 1172.238281 1395.050781 1172.238281 1395.050781 "/>
<path fill="none" stroke-width="95.938" stroke-linecap="round" stroke-linejoin="round" stroke="rgb(6.32782%, 5.79834%, 5.117798%)" stroke-opacity="1" stroke-miterlimit="10" d="M 11722.382812 14399.492188 C 11722.382812 14399.492188 11246.914062 14203.515625 11229.6875 14014.414062 C 11212.382812 13825.390625 11375.78125 11363.398438 12643.28125 10195.703125 C 13910.78125 9027.929688 14447.8125 11475.507812 13635.195312 13318.710938 C 12822.5 15161.914062 11722.382812 14399.492188 11722.382812 14399.492188 Z M 11722.382812 14399.492188 " transform="matrix(0.1, 0, 0, -0.1, 0, 2835)"/>
<path fill-rule="nonzero" fill="rgb(100%, 100%, 100%)" fill-opacity="1" d="M 1907.210938 1991.605469 C 1907.210938 1991.605469 1999.058594 2085.992188 1856.488281 2125.949219 C 1713.910156 2165.90625 1533.191406 2117.777344 1520.46875 2092.347656 C 1507.761719 2066.921875 1561.761719 1959.757812 1641.921875 1957.035156 C 1722.078125 1954.308594 1907.210938 1991.605469 1907.210938 1991.605469 "/>
<path fill="none" stroke-width="95.938" stroke-linecap="round" stroke-linejoin="round" stroke="rgb(6.32782%, 5.79834%, 5.117798%)" stroke-opacity="1" stroke-miterlimit="10" d="M 19072.109375 8433.945312 C 19072.109375 8433.945312 19990.585938 7490.078125 18564.882812 7090.507812 C 17139.101562 6690.9375 15331.914062 7172.226562 15204.6875 7426.523438 C 15077.617188 7680.78125 15617.617188 8752.421875 16419.21875 8779.648438 C 17220.78125 8806.914062 19072.109375 8433.945312 19072.109375 8433.945312 Z M 19072.109375 8433.945312 " transform="matrix(0.1, 0, 0, -0.1, 0, 2835)"/>
<path fill-rule="nonzero" fill="rgb(100%, 100%, 100%)" fill-opacity="1" d="M 1190.609375 1968.335938 C 1190.609375 1968.335938 1138.539062 1950.566406 1122.851562 2016.191406 C 1107.160156 2081.820312 1147.929688 2158.132812 1342.378906 2163.363281 C 1536.820312 2168.585938 1702.21875 2145.429688 1620.570312 2003.855469 C 1538.910156 1862.28125 1190.609375 1968.335938 1190.609375 1968.335938 "/>
<path fill="none" stroke-width="95.938" stroke-linecap="round" stroke-linejoin="round" stroke="rgb(6.32782%, 5.79834%, 5.117798%)" stroke-opacity="1" stroke-miterlimit="10" d="M 11906.09375 8666.640625 C 11906.09375 8666.640625 11385.390625 8844.335938 11228.515625 8188.085938 C 11071.601562 7531.796875 11479.296875 6768.671875 13423.789062 6716.367188 C 15368.203125 6664.140625 17022.1875 6895.703125 16205.703125 8311.445312 C 15389.101562 9727.1875 11906.09375 8666.640625 11906.09375 8666.640625 Z M 11906.09375 8666.640625 " transform="matrix(0.1, 0, 0, -0.1, 0, 2835)"/>
<path fill-rule="nonzero" fill="rgb(30.332947%, 62.969971%, 86.92627%)" fill-opacity="1" d="M 1172.238281 1395.050781 C 1172.238281 1395.050781 1404.980469 1467.328125 1341.28125 1756.410156 C 1341.28125 1756.410156 1210.210938 1818.890625 1190.609375 1968.335938 C 1190.609375 1968.335938 1292.28125 2045.503906 1620.570312 2003.855469 C 1620.570312 2003.855469 1776.140625 2033.253906 1907.210938 1991.605469 C 1907.210938 1991.605469 1926.671875 1925.988281 1983.738281 1834.910156 C 2119.199219 1618.730469 1835.308594 1392.03125 1817.371094 1296.171875 C 1817.371094 1296.171875 1516.859375 1152.320312 1172.238281 1395.050781 "/>
<path fill="none" stroke-width="95.938" stroke-linecap="round" stroke-linejoin="round" stroke="rgb(6.32782%, 5.79834%, 5.117798%)" stroke-opacity="1" stroke-miterlimit="10" d="M 11722.382812 14399.492188 C 11722.382812 14399.492188 14049.804688 13676.71875 13412.8125 10785.898438 C 13412.8125 10785.898438 12102.109375 10161.09375 11906.09375 8666.640625 C 11906.09375 8666.640625 12922.8125 7894.960938 16205.703125 8311.445312 C 16205.703125 8311.445312 17761.40625 8017.460938 19072.109375 8433.945312 C 19072.109375 8433.945312 19266.71875 9090.117188 19837.382812 10000.898438 C 21191.992188 12162.695312 18353.085938 14429.6875 18173.710938 15388.28125 C 18173.710938 15388.28125 15168.59375 16826.796875 11722.382812 14399.492188 Z M 11722.382812 14399.492188 " transform="matrix(0.1, 0, 0, -0.1, 0, 2835)"/>
<path fill-rule="nonzero" fill="rgb(90.06958%, 11.387634%, 14.448547%)" fill-opacity="1" d="M 1121.238281 1452.460938 C 1115.671875 1452.460938 1110.089844 1450.398438 1105.761719 1446.25 C 1096.839844 1437.699219 1096.519531 1423.558594 1105.050781 1414.628906 C 1107.929688 1411.609375 1177.140625 1340.039062 1300.078125 1286.261719 C 1413.441406 1236.671875 1595.699219 1193.761719 1820.199219 1270.96875 C 1831.898438 1274.988281 1838.109375 1287.730469 1834.089844 1299.421875 C 1830.070312 1311.109375 1817.328125 1317.328125 1805.640625 1313.308594 C 1637.039062 1255.308594 1473.558594 1259.761719 1319.769531 1326.511719 C 1204.460938 1376.570312 1138.058594 1444.890625 1137.398438 1445.578125 C 1133 1450.160156 1127.121094 1452.460938 1121.238281 1452.460938 "/>
<path fill="none" stroke-width="95.938" stroke-linecap="round" stroke-linejoin="round" stroke="rgb(6.32782%, 5.79834%, 5.117798%)" stroke-opacity="1" stroke-miterlimit="10" d="M 11212.382812 13825.390625 C 11156.71875 13825.390625 11100.898438 13846.015625 11057.617188 13887.5 C 10968.398438 13973.007812 10965.195312 14114.414062 11050.507812 14203.710938 C 11079.296875 14233.90625 11771.40625 14949.609375 13000.78125 15487.382812 C 14134.414062 15983.28125 15956.992188 16412.382812 18201.992188 15640.3125 C 18318.984375 15600.117188 18381.09375 15472.695312 18340.898438 15355.78125 C 18300.703125 15238.90625 18173.28125 15176.71875 18056.40625 15216.914062 C 16370.390625 15796.914062 14735.585938 15752.382812 13197.695312 15084.882812 C 12044.609375 14584.296875 11380.585938 13901.09375 11373.984375 13894.21875 C 11330 13848.398438 11271.210938 13825.390625 11212.382812 13825.390625 Z M 11212.382812 13825.390625 " transform="matrix(0.1, 0, 0, -0.1, 0, 2835)"/>
<path fill="none" stroke-width="95.938" stroke-linecap="round" stroke-linejoin="round" stroke="rgb(6.32782%, 5.79834%, 5.117798%)" stroke-opacity="1" stroke-miterlimit="10" d="M 11417.109375 19922.617188 C 11417.109375 19922.617188 11178.515625 19356.40625 11185.507812 18256.71875 C 11185.507812 18256.71875 10868.398438 18524.609375 10522.890625 18390.703125 C 10177.5 18256.71875 9783.085938 17368.515625 10833.28125 16931.484375 C 10833.28125 16931.484375 10269.101562 16762.1875 10431.289062 16198.28125 C 10593.398438 15634.414062 11150.3125 15718.90625 11460.507812 15888.085938 " transform="matrix(0.1, 0, 0, -0.1, 0, 2835)"/>
<path fill="none" stroke-width="95.938" stroke-linecap="round" stroke-linejoin="round" stroke="rgb(6.32782%, 5.79834%, 5.117798%)" stroke-opacity="1" stroke-miterlimit="10" d="M 12437.382812 10407.5 C 13397.5 10892.304688 12734.21875 12606.210938 12734.21875 12606.210938 C 12334.101562 12248.203125 11591.09375 12000.117188 11590 11999.804688 C 11772.617188 11436.796875 12042.382812 10857.304688 12437.382812 10407.5 Z M 12437.382812 10407.5 " transform="matrix(0.1, 0, 0, -0.1, 0, 2835)"/>
<path fill-rule="nonzero" fill="rgb(100%, 100%, 100%)" fill-opacity="1" d="M 1903.871094 1547.640625 C 1903.871094 1609.371094 1853.828125 1659.421875 1792.101562 1659.421875 C 1730.359375 1659.421875 1680.320312 1609.371094 1680.320312 1547.640625 C 1680.320312 1485.910156 1730.359375 1435.859375 1792.101562 1435.859375 C 1853.828125 1435.859375 1903.871094 1485.910156 1903.871094 1547.640625 "/>
<path fill="none" stroke-width="95.938" stroke-linecap="round" stroke-linejoin="round" stroke="rgb(6.32782%, 5.79834%, 5.117798%)" stroke-opacity="1" stroke-miterlimit="10" d="M 19038.710938 12873.59375 C 19038.710938 12256.289062 18538.28125 11755.78125 17921.015625 11755.78125 C 17303.59375 11755.78125 16803.203125 12256.289062 16803.203125 12873.59375 C 16803.203125 13490.898438 17303.59375 13991.40625 17921.015625 13991.40625 C 18538.28125 13991.40625 19038.710938 13490.898438 19038.710938 12873.59375 Z M 19038.710938 12873.59375 " transform="matrix(0.1, 0, 0, -0.1, 0, 2835)"/>
<path fill-rule="nonzero" fill="rgb(100%, 100%, 100%)" fill-opacity="1" d="M 1149.578125 1746.800781 C 1149.578125 1800.019531 1106.441406 1843.15625 1053.21875 1843.15625 C 1000.011719 1843.15625 956.863281 1800.019531 956.863281 1746.800781 C 956.863281 1693.578125 1000.011719 1650.441406 1053.21875 1650.441406 C 1106.441406 1650.441406 1149.578125 1693.578125 1149.578125 1746.800781 "/>
<path fill="none" stroke-width="95.938" stroke-linecap="round" stroke-linejoin="round" stroke="rgb(6.32782%, 5.79834%, 5.117798%)" stroke-opacity="1" stroke-miterlimit="10" d="M 11495.78125 10881.992188 C 11495.78125 10349.804688 11064.414062 9918.4375 10532.1875 9918.4375 C 10000.117188 9918.4375 9568.632812 10349.804688 9568.632812 10881.992188 C 9568.632812 11414.21875 10000.117188 11845.585938 10532.1875 11845.585938 C 11064.414062 11845.585938 11495.78125 11414.21875 11495.78125 10881.992188 Z M 11495.78125 10881.992188 " transform="matrix(0.1, 0, 0, -0.1, 0, 2835)"/>
<path fill="none" stroke-width="95.938" stroke-linecap="round" stroke-linejoin="round" stroke="rgb(6.32782%, 5.79834%, 5.117798%)" stroke-opacity="1" stroke-miterlimit="10" d="M 14781.914062 15546.992188 C 14781.914062 15546.992188 17009.21875 14936.71875 17556.992188 13930.390625 " transform="matrix(0.1, 0, 0, -0.1, 0, 2835)"/>
<path fill="none" stroke-width="95.938" stroke-linecap="round" stroke-linejoin="round" stroke="rgb(6.32782%, 5.79834%, 5.117798%)" stroke-opacity="1" stroke-miterlimit="10" d="M 14074.609375 13456.796875 C 14074.609375 13456.796875 16416.40625 12433.789062 16878.398438 12470.507812 " transform="matrix(0.1, 0, 0, -0.1, 0, 2835)"/>
<path fill="none" stroke-width="95.938" stroke-linecap="round" stroke-linejoin="round" stroke="rgb(6.32782%, 5.79834%, 5.117798%)" stroke-opacity="1" stroke-miterlimit="10" d="M 12957.382812 19811.015625 C 12957.382812 19811.015625 15041.914062 20271.015625 15268.007812 20302.109375 C 15494.101562 20333.28125 16421.914062 20419.101562 16421.914062 20419.101562 " transform="matrix(0.1, 0, 0, -0.1, 0, 2835)"/>
<path fill="none" stroke-width="95.938" stroke-linecap="round" stroke-linejoin="round" stroke="rgb(6.32782%, 5.79834%, 5.117798%)" stroke-opacity="1" stroke-miterlimit="10" d="M 13022.695312 19132.695312 C 13022.695312 19132.695312 14987.382812 19007.890625 15283.59375 18984.609375 C 15579.882812 18961.210938 16655.78125 18828.59375 16655.78125 18828.59375 " transform="matrix(0.1, 0, 0, -0.1, 0, 2835)"/>
<path fill="none" stroke-width="95.938" stroke-linecap="round" stroke-linejoin="round" stroke="rgb(6.32782%, 5.79834%, 5.117798%)" stroke-opacity="1" stroke-miterlimit="10" d="M 12957.382812 18493.398438 L 16113.90625 16871.71875 " transform="matrix(0.1, 0, 0, -0.1, 0, 2835)"/>
<path fill="none" stroke-width="95.938" stroke-linecap="round" stroke-linejoin="round" stroke="rgb(6.32782%, 5.79834%, 5.117798%)" stroke-opacity="1" stroke-miterlimit="10" d="M 7391.71875 21569.296875 L 10064.296875 20287.617188 " transform="matrix(0.1, 0, 0, -0.1, 0, 2835)"/>
<path fill="none" stroke-width="95.938" stroke-linecap="round" stroke-linejoin="round" stroke="rgb(6.32782%, 5.79834%, 5.117798%)" stroke-opacity="1" stroke-miterlimit="10" d="M 9866.015625 19730.3125 L 6462.851562 19896.601562 " transform="matrix(0.1, 0, 0, -0.1, 0, 2835)"/>
<path fill="none" stroke-width="95.938" stroke-linecap="round" stroke-linejoin="round" stroke="rgb(6.32782%, 5.79834%, 5.117798%)" stroke-opacity="1" stroke-miterlimit="10" d="M 9866.015625 19012.304688 L 7191.289062 18079.6875 " transform="matrix(0.1, 0, 0, -0.1, 0, 2835)"/>
<path fill-rule="nonzero" fill="rgb(90.06958%, 11.387634%, 14.448547%)" fill-opacity="1" d="M 2136.609375 1721.550781 C 2136.609375 1762.71875 2103.230469 1796.101562 2062.058594 1796.101562 C 2020.890625 1796.101562 1987.511719 1762.71875 1987.511719 1721.550781 C 1987.511719 1680.378906 2020.890625 1647 2062.058594 1647 C 2103.230469 1647 2136.609375 1680.378906 2136.609375 1721.550781 "/>
<path fill="none" stroke-width="95.938" stroke-linecap="round" stroke-linejoin="round" stroke="rgb(6.32782%, 5.79834%, 5.117798%)" stroke-opacity="1" stroke-miterlimit="10" d="M 21366.09375 11134.492188 C 21366.09375 10722.8125 21032.304688 10388.984375 20620.585938 10388.984375 C 20208.90625 10388.984375 19875.117188 10722.8125 19875.117188 11134.492188 C 19875.117188 11546.210938 20208.90625 11880 20620.585938 11880 C 21032.304688 11880 21366.09375 11546.210938 21366.09375 11134.492188 Z M 21366.09375 11134.492188 " transform="matrix(0.1, 0, 0, -0.1, 0, 2835)"/>
<path fill="none" stroke-width="95.938" stroke-linecap="round" stroke-linejoin="round" stroke="rgb(6.32782%, 5.79834%, 5.117798%)" stroke-opacity="1" stroke-miterlimit="10" d="M 19875.117188 11134.492188 L 19363.28125 11091.09375 " transform="matrix(0.1, 0, 0, -0.1, 0, 2835)"/>
<path fill="none" stroke-width="95.938" stroke-linecap="round" stroke-linejoin="round" stroke="rgb(6.32782%, 5.79834%, 5.117798%)" stroke-opacity="1" stroke-miterlimit="10" d="M 16205.703125 8311.445312 C 16205.703125 8311.445312 16748.90625 8752.382812 17150.195312 9231.601562 C 17303.710938 9414.960938 17526.40625 9530.859375 17765.3125 9541.210938 C 17871.484375 9545.78125 17985.585938 9530.585938 18097.695312 9479.375 " transform="matrix(0.1, 0, 0, -0.1, 0, 2835)"/>
<path fill-rule="nonzero" fill="rgb(0%, 64.0625%, 100%)" fill-opacity="1" d="M 1069.238281 2410.953125 C 1067.808594 2410.953125 1066.449219 2411.011719 1065.179688 2411.121094 C 1063.910156 2411.230469 1062.558594 2411.398438 1061.121094 2411.617188 L 1061.121094 2478.105469 C 1061.78125 2478.105469 1062.339844 2478.050781 1062.78125 2477.9375 C 1063.21875 2477.832031 1063.660156 2477.773438 1064.109375 2477.773438 C 1064.550781 2477.773438 1064.941406 2477.71875 1065.269531 2477.605469 C 1066.808594 2477.386719 1068.089844 2477.222656 1069.078125 2477.109375 C 1070.070312 2477 1071.011719 2476.859375 1071.898438 2476.695312 C 1072.78125 2476.53125 1073.691406 2476.339844 1074.628906 2476.117188 C 1075.570312 2475.894531 1076.648438 2475.617188 1077.871094 2475.285156 C 1084.28125 2473.628906 1089.328125 2471.003906 1093.039062 2467.410156 C 1096.738281 2463.820312 1099.53125 2458.871094 1101.410156 2452.570312 C 1102.628906 2448.921875 1103.179688 2445.222656 1103.070312 2441.460938 C 1102.960938 2437.703125 1102.269531 2434.109375 1101 2430.683594 C 1099.730469 2427.261719 1097.871094 2424.132812 1095.441406 2421.316406 C 1093.011719 2418.496094 1090.019531 2416.257812 1086.488281 2414.601562 C 1083.609375 2413.273438 1080.769531 2412.390625 1077.949219 2411.945312 C 1075.128906 2411.507812 1072.230469 2411.175781 1069.238281 2410.953125 Z M 1051.339844 2498.996094 C 1048.460938 2498.441406 1046 2497.117188 1043.960938 2495.019531 C 1041.910156 2492.914062 1040.890625 2490.320312 1040.890625 2487.226562 L 1040.890625 2417.417969 C 1038.898438 2417.753906 1036.96875 2417.503906 1035.089844 2416.675781 C 1033.210938 2415.84375 1031.71875 2414.742188 1030.609375 2413.359375 C 1029.511719 2411.976562 1028.871094 2410.375 1028.699219 2408.546875 C 1028.539062 2406.726562 1029.121094 2404.984375 1030.449219 2403.328125 C 1031.878906 2401.449219 1033.601562 2399.871094 1035.578125 2398.601562 C 1037.578125 2397.332031 1039.671875 2396.277344 1041.890625 2395.449219 C 1044.101562 2394.621094 1046.390625 2393.929688 1048.769531 2393.378906 C 1051.140625 2392.824219 1053.441406 2392.328125 1055.648438 2391.886719 C 1061.839844 2390.890625 1068.03125 2390.640625 1074.21875 2391.140625 C 1080.410156 2391.636719 1086.269531 2392.992188 1091.789062 2395.199219 C 1097.320312 2397.414062 1102.378906 2400.507812 1106.96875 2404.488281 C 1111.550781 2408.464844 1115.28125 2413.441406 1118.160156 2419.410156 C 1119.929688 2423.058594 1121.199219 2426.84375 1121.96875 2430.765625 C 1122.738281 2434.691406 1123.191406 2438.640625 1123.300781 2442.621094 C 1123.410156 2447.820312 1122.800781 2452.847656 1121.46875 2457.710938 C 1120.148438 2462.574219 1118.160156 2467.136719 1115.511719 2471.390625 C 1112.851562 2475.644531 1109.648438 2479.433594 1105.890625 2482.746094 C 1102.128906 2486.0625 1097.929688 2488.828125 1093.289062 2491.035156 C 1089.199219 2492.914062 1084.859375 2494.296875 1080.269531 2495.183594 C 1075.679688 2496.066406 1071.179688 2496.839844 1066.761719 2497.503906 C 1064.550781 2497.835938 1062.199219 2498.191406 1059.710938 2498.582031 C 1057.230469 2498.964844 1054.820312 2499.160156 1052.5 2499.160156 L 1051.339844 2498.996094 "/>
<path fill-rule="nonzero" fill="rgb(0%, 64.0625%, 100%)" fill-opacity="1" d="M 1188.789062 2478.4375 C 1192.101562 2477 1195.011719 2475.09375 1197.5 2472.71875 C 1199.980469 2470.339844 1202.160156 2467.714844 1204.039062 2464.839844 C 1205.921875 2461.964844 1207.5 2458.898438 1208.769531 2455.640625 C 1210.039062 2452.378906 1211.171875 2449.089844 1212.171875 2445.773438 C 1212.828125 2441.574219 1213.191406 2437.261719 1213.25 2432.839844 C 1213.300781 2428.417969 1212.390625 2424.21875 1210.511719 2420.238281 C 1208.960938 2416.921875 1206.621094 2414.078125 1203.460938 2411.699219 C 1200.308594 2409.324219 1196.859375 2407.664062 1193.101562 2406.726562 C 1189.339844 2405.789062 1185.558594 2405.59375 1181.738281 2406.144531 C 1177.929688 2406.699219 1174.53125 2408.191406 1171.550781 2410.621094 C 1167.339844 2414.160156 1163.949219 2418.113281 1161.351562 2422.476562 C 1158.75 2426.84375 1156.789062 2431.679688 1155.460938 2436.984375 C 1154.359375 2441.1875 1153.75 2445.605469 1153.640625 2450.246094 C 1153.53125 2454.890625 1154.238281 2459.316406 1155.800781 2463.515625 C 1157.011719 2466.609375 1158.800781 2469.429688 1161.179688 2471.96875 C 1163.558594 2474.515625 1166.238281 2476.503906 1169.230469 2477.9375 C 1172.210938 2479.378906 1175.390625 2480.175781 1178.761719 2480.34375 C 1182.128906 2480.507812 1185.46875 2479.875 1188.789062 2478.4375 Z M 1231.730469 2450.414062 C 1229.851562 2456.605469 1227.449219 2462.65625 1224.519531 2468.570312 C 1221.589844 2474.484375 1218.03125 2479.761719 1213.828125 2484.40625 C 1209.628906 2489.046875 1204.730469 2492.804688 1199.148438 2495.679688 C 1193.570312 2498.554688 1187.191406 2499.992188 1180 2499.992188 C 1175.359375 2499.769531 1171.679688 2499.355469 1168.980469 2498.746094 C 1166.261719 2498.140625 1163.640625 2497.230469 1161.101562 2496.011719 C 1156.570312 2494.683594 1152.671875 2492.558594 1149.410156 2489.628906 C 1146.148438 2486.703125 1143.410156 2483.300781 1141.199219 2479.433594 C 1138.988281 2475.5625 1137.308594 2471.445312 1136.148438 2467.078125 C 1134.988281 2462.714844 1134.238281 2458.484375 1133.910156 2454.394531 C 1133.351562 2447.210938 1133.960938 2439.914062 1135.730469 2432.507812 C 1137.5 2425.105469 1140.320312 2418.277344 1144.191406 2412.03125 C 1148.058594 2405.789062 1152.921875 2400.425781 1158.78125 2395.945312 C 1164.640625 2391.46875 1171.320312 2388.515625 1178.839844 2387.078125 C 1182.710938 2386.414062 1186.628906 2386.191406 1190.609375 2386.414062 C 1194.589844 2386.636719 1198.460938 2387.40625 1202.21875 2388.734375 C 1205.308594 2389.839844 1208.191406 2391.113281 1210.839844 2392.546875 C 1213.488281 2393.984375 1216.039062 2395.8125 1218.46875 2398.019531 C 1221.679688 2400.894531 1224.378906 2404.210938 1226.589844 2407.96875 C 1228.800781 2411.726562 1230.410156 2415.652344 1231.398438 2419.738281 C 1232.621094 2424.9375 1233.171875 2430.074219 1233.058594 2435.160156 C 1232.949219 2440.246094 1232.511719 2445.332031 1231.730469 2450.414062 "/>
<path fill-rule="nonzero" fill="rgb(0%, 64.0625%, 100%)" fill-opacity="1" d="M 1299.050781 2408.296875 C 1294.628906 2405.648438 1289.789062 2404.15625 1284.539062 2403.820312 C 1279.289062 2403.492188 1274.230469 2404.210938 1269.371094 2405.980469 L 1269.371094 2443.449219 C 1274.339844 2443.117188 1279.230469 2442.484375 1284.039062 2441.542969 C 1288.851562 2440.605469 1293.300781 2438.535156 1297.390625 2435.324219 C 1299.601562 2433.558594 1301.398438 2431.488281 1302.78125 2429.109375 C 1304.160156 2426.734375 1304.988281 2424.300781 1305.269531 2421.8125 C 1305.539062 2419.328125 1305.210938 2416.894531 1304.269531 2414.519531 C 1303.328125 2412.144531 1301.589844 2410.070312 1299.050781 2408.296875 Z M 1269.371094 2488.550781 C 1269.039062 2491.3125 1267.878906 2493.578125 1265.890625 2495.347656 C 1263.898438 2497.117188 1261.738281 2498.253906 1259.421875 2498.746094 C 1257.101562 2499.242188 1254.96875 2498.996094 1253.039062 2498 C 1251.101562 2497.007812 1250.078125 2495.019531 1249.96875 2492.03125 C 1249.410156 2479.320312 1249.140625 2466.140625 1249.140625 2452.488281 C 1249.140625 2438.835938 1249.140625 2425.269531 1249.140625 2411.78125 C 1247.371094 2411.121094 1246.050781 2410.125 1245.160156 2408.796875 C 1244.28125 2407.472656 1243.761719 2406.007812 1243.589844 2404.40625 C 1243.421875 2402.804688 1243.609375 2401.171875 1244.171875 2399.511719 C 1244.71875 2397.855469 1245.550781 2396.417969 1246.660156 2395.199219 C 1247.871094 2393.875 1249.53125 2392.660156 1251.628906 2391.554688 C 1253.730469 2390.449219 1256.019531 2389.425781 1258.511719 2388.484375 C 1261 2387.546875 1263.460938 2386.746094 1265.890625 2386.082031 C 1268.320312 2385.421875 1270.359375 2384.921875 1272.019531 2384.589844 C 1278.988281 2383.152344 1286.011719 2383.183594 1293.078125 2384.671875 C 1300.160156 2386.164062 1306.371094 2388.847656 1311.730469 2392.714844 C 1317.089844 2396.585938 1321.101562 2401.613281 1323.75 2407.804688 C 1326.410156 2413.996094 1326.679688 2421.066406 1324.578125 2429.027344 C 1323.921875 2431.238281 1323.089844 2433.449219 1322.101562 2435.65625 C 1321.101562 2437.871094 1319.941406 2439.914062 1318.609375 2441.792969 C 1316.730469 2444.667969 1314.53125 2447.210938 1311.980469 2449.421875 C 1309.441406 2451.632812 1306.679688 2453.675781 1303.691406 2455.554688 C 1305.789062 2457.765625 1307.78125 2460.085938 1309.660156 2462.519531 C 1311.539062 2464.953125 1313.640625 2467.164062 1315.960938 2469.148438 C 1316.839844 2469.925781 1318.140625 2471.140625 1319.859375 2472.800781 C 1321.570312 2474.457031 1323.230469 2476.226562 1324.828125 2478.105469 C 1326.429688 2479.988281 1327.839844 2481.835938 1329.058594 2483.660156 C 1330.269531 2485.484375 1330.828125 2487.003906 1330.71875 2488.21875 C 1330.609375 2490.320312 1330.03125 2492.226562 1328.980469 2493.941406 C 1327.929688 2495.652344 1326.660156 2496.976562 1325.160156 2497.917969 C 1323.671875 2498.855469 1322.039062 2499.324219 1320.269531 2499.324219 C 1318.5 2499.324219 1316.730469 2498.71875 1314.96875 2497.503906 C 1312.980469 2495.953125 1311.101562 2494.128906 1309.328125 2492.03125 C 1307.558594 2489.933594 1305.851562 2488 1304.191406 2486.230469 C 1300.539062 2482.25 1296.980469 2478.242188 1293.488281 2474.207031 C 1290.011719 2470.171875 1286.449219 2466.226562 1282.800781 2462.351562 C 1280.589844 2462.796875 1278.351562 2463.097656 1276.089844 2463.261719 C 1273.820312 2463.429688 1271.578125 2463.625 1269.371094 2463.84375 L 1269.371094 2488.550781 "/>
<path fill-rule="nonzero" fill="rgb(0%, 64.0625%, 100%)" fill-opacity="1" d="M 1405.328125 2472.132812 C 1407.320312 2472.246094 1409.058594 2472.773438 1410.558594 2473.710938 C 1412.050781 2474.648438 1413.261719 2475.78125 1414.199219 2477.109375 C 1415.140625 2478.4375 1415.699219 2479.957031 1415.859375 2481.671875 C 1416.03125 2483.382812 1415.671875 2485.128906 1414.78125 2486.890625 C 1414.449219 2487.667969 1413.761719 2488.578125 1412.710938 2489.628906 C 1411.660156 2490.679688 1410.691406 2491.3125 1409.808594 2491.535156 C 1402.738281 2493.632812 1395.46875 2494.933594 1388.011719 2495.429688 C 1380.539062 2495.929688 1373.171875 2495.789062 1365.871094 2495.019531 C 1363.769531 2494.792969 1361.480469 2494.574219 1358.988281 2494.355469 C 1356.5 2494.128906 1354.320312 2493.414062 1352.441406 2492.199219 C 1349.011719 2489.988281 1347.300781 2486.835938 1347.300781 2482.746094 L 1347.300781 2412.113281 C 1346.078125 2411.230469 1345.089844 2410.125 1344.320312 2408.796875 C 1343.539062 2407.472656 1343.070312 2406.058594 1342.910156 2404.570312 C 1342.738281 2403.078125 1342.929688 2401.640625 1343.488281 2400.257812 C 1344.039062 2398.878906 1344.980469 2397.691406 1346.308594 2396.695312 C 1348.519531 2394.925781 1351.058594 2393.738281 1353.929688 2393.128906 C 1356.808594 2392.523438 1359.621094 2391.996094 1362.390625 2391.554688 C 1368.128906 2390.671875 1373.878906 2390.226562 1379.628906 2390.226562 C 1385.378906 2390.226562 1391.238281 2390.171875 1397.210938 2390.0625 C 1398.96875 2390.0625 1401.019531 2389.925781 1403.339844 2389.644531 C 1405.660156 2389.371094 1407.710938 2389.5625 1409.480469 2390.226562 C 1411.578125 2391.003906 1413.230469 2392.21875 1414.449219 2393.875 C 1415.671875 2395.535156 1416.390625 2397.300781 1416.609375 2399.179688 C 1416.828125 2401.0625 1416.46875 2402.882812 1415.53125 2404.652344 C 1414.589844 2406.421875 1412.960938 2407.804688 1410.640625 2408.796875 C 1407.871094 2409.902344 1404.921875 2410.402344 1401.769531 2410.289062 C 1398.621094 2410.183594 1395.609375 2410.125 1392.730469 2410.125 C 1388.53125 2410.125 1384.328125 2410.183594 1380.128906 2410.289062 C 1375.929688 2410.402344 1371.730469 2410.734375 1367.53125 2411.285156 L 1367.53125 2434.332031 C 1371.511719 2434.554688 1375.488281 2434.554688 1379.46875 2434.332031 C 1383.449219 2434.109375 1387.429688 2433.832031 1391.410156 2433.503906 C 1393.171875 2433.394531 1394.941406 2433.226562 1396.710938 2433.003906 C 1398.480469 2432.785156 1400.300781 2432.785156 1402.179688 2433.003906 C 1404.609375 2433.339844 1406.488281 2434.332031 1407.820312 2435.992188 C 1409.148438 2437.648438 1409.949219 2439.5 1410.21875 2441.542969 C 1410.5 2443.589844 1410.140625 2445.605469 1409.148438 2447.59375 C 1408.148438 2449.585938 1406.550781 2451.023438 1404.339844 2451.90625 C 1402.460938 2452.683594 1399.921875 2453.261719 1396.710938 2453.648438 C 1393.5 2454.039062 1390.128906 2454.308594 1386.601562 2454.476562 C 1383.058594 2454.644531 1379.570312 2454.726562 1376.148438 2454.726562 C 1372.71875 2454.726562 1369.851562 2454.671875 1367.53125 2454.558594 L 1367.53125 2474.953125 C 1373.609375 2475.726562 1379.738281 2475.839844 1385.929688 2475.285156 C 1392.121094 2474.730469 1398.199219 2473.683594 1404.171875 2472.132812 L 1405.328125 2472.132812 "/>
<path fill-rule="nonzero" fill="rgb(0%, 64.0625%, 100%)" fill-opacity="1" d="M 1484.421875 2442.789062 C 1482.320312 2437.8125 1480.078125 2432.867188 1477.699219 2427.949219 C 1475.328125 2423.03125 1472.648438 2418.359375 1469.660156 2413.9375 C 1467.449219 2418.800781 1465.378906 2423.636719 1463.449219 2428.445312 C 1461.511719 2433.253906 1459.710938 2438.144531 1458.058594 2443.117188 C 1463.25 2443.011719 1467.808594 2442.953125 1471.738281 2442.953125 C 1475.660156 2442.953125 1479.890625 2442.898438 1484.421875 2442.789062 Z M 1518.238281 2487.886719 C 1517.910156 2490.320312 1517.078125 2492.390625 1515.761719 2494.105469 C 1514.429688 2495.816406 1512.910156 2497.007812 1511.199219 2497.667969 C 1509.480469 2498.332031 1507.660156 2498.414062 1505.730469 2497.917969 C 1503.789062 2497.421875 1502 2496.121094 1500.339844 2494.023438 C 1498.898438 2492.253906 1498.101562 2490.289062 1497.929688 2488.136719 C 1497.769531 2485.980469 1497.460938 2483.851562 1497.019531 2481.753906 C 1495.910156 2475.671875 1494.308594 2469.429688 1492.210938 2463.015625 C 1485.359375 2463.128906 1478.558594 2463.179688 1471.820312 2463.179688 C 1465.078125 2463.179688 1458.328125 2463.238281 1451.589844 2463.347656 C 1450.589844 2466.226562 1449.738281 2469.148438 1449.019531 2472.132812 C 1448.300781 2475.121094 1447.609375 2478.050781 1446.949219 2480.925781 C 1446.390625 2483.136719 1445.898438 2485.429688 1445.460938 2487.804688 C 1445.011719 2490.183594 1444.019531 2492.253906 1442.46875 2494.023438 C 1440.589844 2496.234375 1438.570312 2497.476562 1436.421875 2497.753906 C 1434.261719 2498.027344 1432.328125 2497.667969 1430.621094 2496.675781 C 1428.898438 2495.679688 1427.519531 2494.160156 1426.46875 2492.117188 C 1425.421875 2490.070312 1425.058594 2487.722656 1425.390625 2485.070312 C 1425.71875 2481.644531 1426.390625 2478.269531 1427.378906 2474.953125 C 1428.378906 2471.640625 1429.308594 2468.320312 1430.199219 2465.007812 C 1435.179688 2445.996094 1441.578125 2427.589844 1449.429688 2409.789062 C 1450.101562 2408.246094 1450.789062 2406.753906 1451.511719 2405.316406 C 1452.230469 2403.878906 1452.921875 2402.445312 1453.578125 2401.003906 C 1454.351562 2399.457031 1455.128906 2397.800781 1455.898438 2396.03125 C 1456.671875 2394.265625 1457.578125 2392.628906 1458.640625 2391.140625 C 1459.691406 2389.644531 1460.929688 2388.378906 1462.371094 2387.324219 C 1463.800781 2386.273438 1465.570312 2385.75 1467.671875 2385.75 C 1470.429688 2385.75 1472.761719 2386.636719 1474.640625 2388.402344 C 1482.148438 2395.921875 1488.339844 2404.40625 1493.210938 2413.855469 C 1498.070312 2423.304688 1502.429688 2432.949219 1506.300781 2442.789062 C 1508.628906 2442.679688 1510.890625 2442.679688 1513.109375 2442.789062 C 1515.320312 2442.898438 1517.300781 2443.894531 1519.078125 2445.773438 C 1520.621094 2447.320312 1521.53125 2448.980469 1521.808594 2450.746094 C 1522.078125 2452.515625 1521.921875 2454.226562 1521.308594 2455.886719 C 1520.699219 2457.542969 1519.710938 2458.980469 1518.328125 2460.199219 C 1516.941406 2461.414062 1515.261719 2462.242188 1513.269531 2462.6875 C 1514.371094 2466.554688 1515.339844 2470.503906 1516.171875 2474.539062 C 1517 2478.574219 1517.691406 2482.636719 1518.238281 2486.726562 L 1518.238281 2487.886719 "/>
<path fill-rule="nonzero" fill="rgb(0%, 64.0625%, 100%)" fill-opacity="1" d="M 1648.070312 2488.386719 C 1647.738281 2490.816406 1646.851562 2492.886719 1645.410156 2494.601562 C 1643.980469 2496.316406 1642.320312 2497.503906 1640.441406 2498.167969 C 1638.558594 2498.832031 1636.628906 2498.855469 1634.640625 2498.253906 C 1632.648438 2497.640625 1630.988281 2496.179688 1629.660156 2493.855469 C 1628.558594 2491.976562 1627.921875 2490.015625 1627.761719 2487.96875 C 1627.589844 2485.925781 1627.398438 2483.796875 1627.171875 2481.585938 C 1626.949219 2479.15625 1626.699219 2477.027344 1626.429688 2475.203125 C 1626.148438 2473.378906 1625.851562 2471.253906 1625.519531 2468.820312 C 1624.519531 2462.1875 1623.410156 2455.640625 1622.199219 2449.171875 C 1620.980469 2442.707031 1619.601562 2436.214844 1618.058594 2429.6875 C 1615.851562 2435.21875 1613.738281 2440.691406 1611.761719 2446.105469 C 1609.769531 2451.523438 1607.769531 2456.992188 1605.789062 2462.519531 C 1604.238281 2466.609375 1602.71875 2470.726562 1601.230469 2474.871094 C 1599.738281 2479.015625 1597.988281 2483.023438 1596 2486.890625 C 1595.339844 2488.21875 1594.230469 2489.296875 1592.691406 2490.125 C 1591.140625 2490.953125 1589.480469 2491.425781 1587.710938 2491.535156 C 1585.941406 2491.644531 1584.289062 2491.398438 1582.738281 2490.789062 C 1581.191406 2490.183594 1580.03125 2489.15625 1579.261719 2487.722656 C 1574.511719 2478.546875 1569.808594 2469.429688 1565.160156 2460.363281 C 1560.519531 2451.300781 1555.878906 2442.179688 1551.238281 2433.003906 C 1550.679688 2438.640625 1550.179688 2444.308594 1549.738281 2450 C 1549.300781 2455.695312 1548.800781 2461.359375 1548.25 2466.996094 C 1548.140625 2468.765625 1548.03125 2470.921875 1547.921875 2473.460938 C 1547.808594 2476.007812 1547.621094 2478.574219 1547.339844 2481.171875 C 1547.058594 2483.769531 1546.730469 2486.257812 1546.339844 2488.632812 C 1545.960938 2491.011719 1545.320312 2492.859375 1544.441406 2494.1875 C 1543.109375 2496.398438 1541.371094 2497.835938 1539.210938 2498.5 C 1537.058594 2499.160156 1534.960938 2499.214844 1532.921875 2498.664062 C 1530.871094 2498.109375 1529.160156 2496.976562 1527.78125 2495.265625 C 1526.390625 2493.550781 1525.761719 2491.367188 1525.871094 2488.714844 C 1526.089844 2484.1875 1526.480469 2479.710938 1527.03125 2475.285156 C 1527.578125 2470.867188 1528.078125 2466.390625 1528.519531 2461.855469 C 1529.410156 2452.019531 1530.320312 2442.234375 1531.261719 2432.507812 C 1532.191406 2422.78125 1533.109375 2412.941406 1533.988281 2402.992188 C 1534.210938 2400.121094 1534.789062 2397.46875 1535.730469 2395.035156 C 1536.671875 2392.605469 1538.691406 2390.890625 1541.789062 2389.898438 C 1543 2389.453125 1544.269531 2389.289062 1545.601562 2389.398438 C 1546.929688 2389.507812 1548.140625 2389.898438 1549.25 2390.558594 C 1551.679688 2392.109375 1553.578125 2394.234375 1554.96875 2396.941406 C 1556.351562 2399.652344 1557.648438 2402.222656 1558.859375 2404.652344 C 1560.960938 2408.632812 1563.011719 2412.640625 1565 2416.675781 C 1566.988281 2420.710938 1568.980469 2424.714844 1570.96875 2428.691406 C 1573.398438 2433.78125 1575.859375 2438.78125 1578.351562 2443.699219 C 1580.828125 2448.621094 1583.398438 2453.566406 1586.058594 2458.539062 C 1586.71875 2456.882812 1587.351562 2455.222656 1587.960938 2453.566406 C 1588.570312 2451.90625 1589.210938 2450.246094 1589.871094 2448.589844 C 1591.089844 2445.71875 1592.21875 2442.816406 1593.269531 2439.886719 C 1594.320312 2436.960938 1595.390625 2434.058594 1596.5 2431.183594 C 1598.050781 2427.425781 1599.511719 2423.71875 1600.890625 2420.074219 C 1602.28125 2416.425781 1603.628906 2412.722656 1604.960938 2408.964844 C 1606.058594 2406.203125 1607.109375 2403.214844 1608.109375 2400.011719 C 1609.101562 2396.804688 1610.699219 2394.097656 1612.921875 2391.886719 C 1614.460938 2390.226562 1616.148438 2389.230469 1617.980469 2388.902344 C 1619.800781 2388.570312 1621.511719 2388.710938 1623.109375 2389.316406 C 1624.71875 2389.925781 1626.148438 2390.945312 1627.421875 2392.382812 C 1628.691406 2393.820312 1629.609375 2395.480469 1630.160156 2397.355469 C 1630.820312 2399.898438 1631.601562 2402.773438 1632.480469 2405.980469 C 1633.371094 2409.1875 1634.140625 2412.058594 1634.800781 2414.601562 C 1636.019531 2419.242188 1637.128906 2423.804688 1638.121094 2428.28125 C 1639.109375 2432.757812 1640.050781 2437.316406 1640.941406 2441.960938 C 1642.480469 2449.585938 1643.839844 2457.128906 1645 2464.589844 C 1646.160156 2472.054688 1647.179688 2479.597656 1648.070312 2487.226562 L 1648.070312 2488.386719 "/>
<path fill-rule="nonzero" fill="rgb(62.011719%, 87.739563%, 96.759033%)" fill-opacity="1" d="M 1711.070312 2478.4375 C 1714.390625 2477 1717.289062 2475.09375 1719.78125 2472.71875 C 1722.269531 2470.339844 1724.449219 2467.714844 1726.328125 2464.839844 C 1728.210938 2461.964844 1729.78125 2458.898438 1731.050781 2455.640625 C 1732.320312 2452.378906 1733.460938 2449.089844 1734.449219 2445.773438 C 1735.109375 2441.574219 1735.46875 2437.261719 1735.53125 2432.839844 C 1735.578125 2428.417969 1734.671875 2424.21875 1732.789062 2420.238281 C 1731.25 2416.921875 1728.898438 2414.078125 1725.75 2411.699219 C 1722.601562 2409.324219 1719.140625 2407.664062 1715.390625 2406.726562 C 1711.628906 2405.789062 1707.839844 2405.59375 1704.03125 2406.144531 C 1700.210938 2406.699219 1696.808594 2408.191406 1693.828125 2410.621094 C 1689.628906 2414.160156 1686.230469 2418.113281 1683.628906 2422.476562 C 1681.03125 2426.84375 1679.070312 2431.679688 1677.75 2436.984375 C 1676.640625 2441.1875 1676.03125 2445.605469 1675.921875 2450.246094 C 1675.808594 2454.890625 1676.53125 2459.316406 1678.078125 2463.515625 C 1679.289062 2466.609375 1681.089844 2469.429688 1683.46875 2471.96875 C 1685.839844 2474.515625 1688.519531 2476.503906 1691.511719 2477.9375 C 1694.488281 2479.378906 1697.671875 2480.175781 1701.039062 2480.34375 C 1704.410156 2480.507812 1707.761719 2479.875 1711.070312 2478.4375 Z M 1754.019531 2450.414062 C 1752.140625 2456.605469 1749.730469 2462.65625 1746.800781 2468.570312 C 1743.871094 2474.484375 1740.308594 2479.761719 1736.109375 2484.40625 C 1731.910156 2489.046875 1727.019531 2492.804688 1721.441406 2495.679688 C 1715.851562 2498.554688 1709.46875 2499.992188 1702.289062 2499.992188 C 1697.640625 2499.769531 1693.96875 2499.355469 1691.261719 2498.746094 C 1688.550781 2498.140625 1685.929688 2497.230469 1683.378906 2496.011719 C 1678.851562 2494.683594 1674.949219 2492.558594 1671.691406 2489.628906 C 1668.429688 2486.703125 1665.699219 2483.300781 1663.488281 2479.433594 C 1661.269531 2475.5625 1659.589844 2471.445312 1658.429688 2467.078125 C 1657.269531 2462.714844 1656.53125 2458.484375 1656.191406 2454.394531 C 1655.640625 2447.210938 1656.238281 2439.914062 1658.011719 2432.507812 C 1659.78125 2425.105469 1662.601562 2418.277344 1666.46875 2412.03125 C 1670.339844 2405.789062 1675.199219 2400.425781 1681.058594 2395.945312 C 1686.921875 2391.46875 1693.609375 2388.515625 1701.128906 2387.078125 C 1704.988281 2386.414062 1708.921875 2386.191406 1712.898438 2386.414062 C 1716.878906 2386.636719 1720.738281 2387.40625 1724.5 2388.734375 C 1727.601562 2389.839844 1730.46875 2391.113281 1733.128906 2392.546875 C 1735.78125 2393.984375 1738.320312 2395.8125 1740.75 2398.019531 C 1743.960938 2400.894531 1746.660156 2404.210938 1748.878906 2407.96875 C 1751.089844 2411.726562 1752.691406 2415.652344 1753.691406 2419.738281 C 1754.898438 2424.9375 1755.449219 2430.074219 1755.339844 2435.160156 C 1755.230469 2440.246094 1754.789062 2445.332031 1754.019531 2450.414062 "/>
<path fill-rule="nonzero" fill="rgb(0%, 64.0625%, 100%)" fill-opacity="1" d="M 1837.078125 2394.371094 C 1837.75 2392.160156 1838.828125 2390.339844 1840.320312 2388.902344 C 1841.808594 2387.464844 1843.441406 2386.527344 1845.210938 2386.082031 C 1846.980469 2385.640625 1848.769531 2385.75 1850.601562 2386.414062 C 1852.421875 2387.078125 1854 2388.402344 1855.320312 2390.390625 C 1855.761719 2390.945312 1856.179688 2391.609375 1856.570312 2392.382812 C 1856.949219 2393.15625 1857.148438 2393.875 1857.148438 2394.539062 C 1857.371094 2410.347656 1857.289062 2426.125 1856.898438 2441.875 C 1856.511719 2457.628906 1855.878906 2473.40625 1854.988281 2489.210938 C 1854.988281 2491.757812 1854.191406 2493.742188 1852.589844 2495.183594 C 1850.980469 2496.617188 1849.160156 2497.53125 1847.121094 2497.917969 C 1845.070312 2498.304688 1843 2498.082031 1840.898438 2497.253906 C 1838.800781 2496.425781 1837.25 2495.019531 1836.261719 2493.027344 C 1836.140625 2492.914062 1836.089844 2492.804688 1836.089844 2492.695312 L 1836.089844 2493.027344 C 1828.898438 2481.199219 1821.328125 2469.84375 1813.371094 2458.953125 C 1805.421875 2448.066406 1797.128906 2437.261719 1788.511719 2426.535156 L 1788.511719 2464.011719 C 1788.511719 2469.097656 1788.511719 2473.355469 1788.511719 2476.777344 C 1788.511719 2480.203125 1788.449219 2482.996094 1788.339844 2485.152344 C 1788.230469 2487.308594 1788.089844 2488.992188 1787.929688 2490.207031 C 1787.761719 2491.425781 1787.511719 2492.476562 1787.179688 2493.359375 C 1786.179688 2496.011719 1784.660156 2497.777344 1782.621094 2498.664062 C 1780.570312 2499.546875 1778.5 2499.769531 1776.398438 2499.324219 C 1774.300781 2498.882812 1772.480469 2497.777344 1770.929688 2496.011719 C 1769.378906 2494.242188 1768.609375 2492.03125 1768.609375 2489.378906 C 1768.609375 2487.832031 1768.609375 2485.402344 1768.609375 2482.082031 C 1768.609375 2478.769531 1768.609375 2475.011719 1768.609375 2470.808594 C 1768.609375 2466.609375 1768.609375 2462.105469 1768.609375 2457.296875 C 1768.609375 2452.488281 1768.609375 2447.761719 1768.609375 2443.117188 C 1768.609375 2438.476562 1768.578125 2434.140625 1768.53125 2430.105469 C 1768.46875 2426.070312 1768.441406 2422.671875 1768.441406 2419.90625 C 1768.441406 2416.152344 1768.390625 2412.421875 1768.28125 2408.714844 C 1768.171875 2405.011719 1768.171875 2401.28125 1768.28125 2397.523438 C 1768.28125 2395.644531 1768.75 2394.039062 1769.691406 2392.714844 C 1770.621094 2391.386719 1771.808594 2390.367188 1773.25 2389.644531 C 1774.679688 2388.929688 1776.238281 2388.515625 1777.890625 2388.402344 C 1779.550781 2388.292969 1781.148438 2388.515625 1782.699219 2389.066406 C 1784.03125 2389.507812 1785.378906 2390.421875 1786.761719 2391.800781 C 1788.140625 2393.1875 1789.5 2394.679688 1790.828125 2396.277344 C 1792.148438 2397.882812 1793.390625 2399.488281 1794.558594 2401.089844 C 1795.71875 2402.691406 1796.679688 2403.988281 1797.460938 2404.984375 C 1800.328125 2408.523438 1803.648438 2412.585938 1807.410156 2417.171875 C 1811.160156 2421.757812 1814.640625 2426.101562 1817.851562 2430.1875 C 1821.058594 2434.386719 1824.179688 2438.585938 1827.21875 2442.789062 C 1830.261719 2446.988281 1833.210938 2451.1875 1836.089844 2455.390625 C 1836.421875 2445.332031 1836.640625 2435.324219 1836.75 2425.378906 C 1836.859375 2415.429688 1836.921875 2405.429688 1836.921875 2395.367188 L 1837.078125 2394.371094 "/>
<path fill-rule="nonzero" fill="rgb(94.943237%, 92.929077%, 8.555603%)" fill-opacity="1" d="M 1759.398438 2444.765625 C 1759.398438 2474.859375 1735 2499.257812 1704.898438 2499.257812 C 1674.808594 2499.257812 1650.410156 2474.859375 1650.410156 2444.765625 C 1650.410156 2414.667969 1674.808594 2390.269531 1704.898438 2390.269531 C 1735 2390.269531 1759.398438 2414.667969 1759.398438 2444.765625 "/>
<path fill="none" stroke-width="48.8019" stroke-linecap="round" stroke-linejoin="round" stroke="rgb(12.786865%, 11.294556%, 11.198425%)" stroke-opacity="1" stroke-miterlimit="10" d="M 17593.984375 3902.34375 C 17593.984375 3601.40625 17350 3357.421875 17048.984375 3357.421875 C 16748.085938 3357.421875 16504.101562 3601.40625 16504.101562 3902.34375 C 16504.101562 4203.320312 16748.085938 4447.304688 17048.984375 4447.304688 C 17350 4447.304688 17593.984375 4203.320312 17593.984375 3902.34375 Z M 17593.984375 3902.34375 " transform="matrix(0.1, 0, 0, -0.1, 0, 2835)"/>
<path fill-rule="nonzero" fill="rgb(94.943237%, 92.929077%, 8.555603%)" fill-opacity="1" d="M 1761.28125 2474.734375 C 1758.039062 2474.734375 1754.800781 2473.445312 1752.398438 2470.898438 C 1710.730469 2426.652344 1650.058594 2431.734375 1649.460938 2431.796875 C 1642.730469 2432.390625 1636.808594 2427.488281 1636.179688 2420.78125 C 1635.558594 2414.070312 1640.488281 2408.125 1647.199219 2407.5 C 1650.171875 2407.222656 1720.421875 2401.347656 1770.160156 2454.171875 C 1774.78125 2459.074219 1774.550781 2466.796875 1769.648438 2471.414062 C 1767.289062 2473.632812 1764.28125 2474.734375 1761.28125 2474.734375 "/>
<path fill="none" stroke-width="48.8019" stroke-linecap="butt" stroke-linejoin="miter" stroke="rgb(12.786865%, 11.294556%, 11.198425%)" stroke-opacity="1" stroke-miterlimit="10" d="M 17612.8125 3602.65625 C 17580.390625 3602.65625 17548.007812 3615.546875 17523.984375 3641.015625 C 17107.304688 4083.476562 16500.585938 4032.65625 16494.609375 4032.03125 C 16427.304688 4026.09375 16368.085938 4075.117188 16361.796875 4142.1875 C 16355.585938 4209.296875 16404.882812 4268.75 16471.992188 4275 C 16501.71875 4277.773438 17204.21875 4336.523438 17701.601562 3808.28125 C 17747.8125 3759.257812 17745.507812 3682.03125 17696.484375 3635.859375 C 17672.890625 3613.671875 17642.8125 3602.65625 17612.8125 3602.65625 Z M 17612.8125 3602.65625 " transform="matrix(0.1, 0, 0, -0.1, 0, 2835)"/>
<path fill-rule="nonzero" fill="rgb(95.230103%, 83.015442%, 2.967834%)" fill-opacity="1" d="M 1695.21875 2445.535156 C 1686.75 2442.472656 1678.601562 2443.53125 1677.019531 2447.898438 C 1675.839844 2451.164062 1678.660156 2455.351562 1683.699219 2458.535156 C 1679.988281 2465.84375 1675.550781 2477.691406 1677.070312 2490.914062 C 1677.351562 2493.40625 1679.460938 2495.238281 1681.910156 2495.238281 C 1682.089844 2495.238281 1682.28125 2495.230469 1682.46875 2495.207031 C 1685.148438 2494.898438 1687.070312 2492.480469 1686.761719 2489.804688 C 1685.5 2478.75 1689.441406 2468.578125 1692.699219 2462.324219 C 1699.929688 2464.09375 1706.308594 2462.804688 1707.691406 2458.992188 C 1709.269531 2454.621094 1703.691406 2448.597656 1695.21875 2445.535156 "/>
<path fill="none" stroke-width="48.8019" stroke-linecap="butt" stroke-linejoin="miter" stroke="rgb(12.786865%, 11.294556%, 11.198425%)" stroke-opacity="1" stroke-miterlimit="10" d="M 16952.1875 3894.648438 C 16867.5 3925.273438 16786.015625 3914.6875 16770.195312 3871.015625 C 16758.398438 3838.359375 16786.601562 3796.484375 16836.992188 3764.648438 C 16799.882812 3691.5625 16755.507812 3573.085938 16770.703125 3440.859375 C 16773.515625 3415.9375 16794.609375 3397.617188 16819.101562 3397.617188 C 16820.898438 3397.617188 16822.8125 3397.695312 16824.6875 3397.929688 C 16851.484375 3401.015625 16870.703125 3425.195312 16867.617188 3451.953125 C 16855 3562.5 16894.414062 3664.21875 16926.992188 3726.757812 C 16999.296875 3709.0625 17063.085938 3721.953125 17076.914062 3760.078125 C 17092.695312 3803.789062 17036.914062 3864.023438 16952.1875 3894.648438 Z M 16952.1875 3894.648438 " transform="matrix(0.1, 0, 0, -0.1, 0, 2835)"/>
</svg>
